# xmcd CD Database Entry
#
# Track frame offsets:
# 150
# 18312
# 36312
# 53580
# 69312
# 86772
# 105062
# 120732
# 138070
# 158037
# 178379
#
# Disc length: 2572 seconds
#
# Revision: 2
# Processed by: cddbd v1.4b42PL1 Copyright (c) Steve Scherf et al.
# Submitted via: tcd 2.0b
#
DISCID=840a0a0b
DTITLE=UltraSuede/the other ellie
DYEAR=1900
DGENRE=
TTITLE0=the other ellie
TTITLE1=i'm looking for my girl
TTITLE2=mary ecstasy
TTITLE3=making record time
TTITLE4=on your holiday
TTITLE5=in a perfect world
TTITLE6=i don't know
TTITLE7=it's a beautiful day
TTITLE8=everything
TTITLE9=one word away
TTITLE10=sacramento kings 2000 theme
EXTD=
EXTT0=
EXTT1=
EXTT2=
EXTT3=
EXTT4=
EXTT5=
EXTT6=
EXTT7=
EXTT8=
EXTT9=
EXTT10=
PLAYORDER=
